<?xml version="1.0" encoding="UTF-8" standalone="no"?>
<!DOCTYPE svg PUBLIC "-//W3C//DTD SVG 1.1//EN"
 "http://www.w3.org/Graphics/SVG/1.1/DTD/svg11.dtd">
<!-- Generated by graphviz version 12.2.1 (0)
 -->
<!-- Title: state transitions Pages: 1 -->
<svg width="430px" height="282px"
 viewBox="0.00 0.00 430.24 252.16" xmlns="http://www.w3.org/2000/svg" xmlns:sodipodi="http://sodipodi.sourceforge.net/DTD/sodipodi-0.dtd" xmlns:inkscape="http://www.inkscape.org/namespaces/inkscape" xmlns:xlink="http://www.w3.org/1999/xlink">
<g id="graph0" class="graph" transform="scale(1 1) rotate(0) translate(4 248.16)">
<title>state transitions</title>
<polygon fill="white" stroke="none" points="-4,4 -4,-248.16 426.24,-248.16 426.24,4 -4,4"/>
<g id="clust1" class="cluster state regular">
<title>cluster_InitialState</title>
<path fill="none" stroke="black" stroke-width="2" d="M174.78,-158.24C174.78,-158.24 230.78,-158.24 230.78,-158.24 236.78,-158.24 242.78,-164.24 242.78,-170.24 242.78,-170.24 242.78,-193.36 242.78,-193.36 242.78,-199.36 236.78,-205.36 230.78,-205.36 230.78,-205.36 174.78,-205.36 174.78,-205.36 168.78,-205.36 162.78,-199.36 162.78,-193.36 162.78,-193.36 162.78,-170.24 162.78,-170.24 162.78,-164.24 168.78,-158.24 174.78,-158.24"/>
<text text-anchor="start" x="174.76" y="-186.56" font-family="Helvetica,sans-Serif" font-size="12.00">InitialState</text>
</g>
<g id="clust2" class="cluster state regular">
<title>cluster_LoadingState</title>
<path fill="none" stroke="black" stroke-width="2" d="M141.78,-83.12C141.78,-83.12 211.78,-83.12 211.78,-83.12 217.78,-83.12 223.78,-89.12 223.78,-95.12 223.78,-95.12 223.78,-118.24 223.78,-118.24 223.78,-124.24 217.78,-130.24 211.78,-130.24 211.78,-130.24 141.78,-130.24 141.78,-130.24 135.78,-130.24 129.78,-124.24 129.78,-118.24 129.78,-118.24 129.78,-95.12 129.78,-95.12 129.78,-89.12 135.78,-83.12 141.78,-83.12"/>
<text text-anchor="start" x="141.41" y="-111.44" font-family="Helvetica,sans-Serif" font-size="12.00">LoadingState</text>
</g>
<g id="clust3" class="cluster state regular">
<title>cluster_LoadedState</title>
<path fill="none" stroke="black" stroke-width="2" d="M74.78,-8C74.78,-8 142.78,-8 142.78,-8 148.78,-8 154.78,-14 154.78,-20 154.78,-20 154.78,-43.12 154.78,-43.12 154.78,-49.12 148.78,-55.12 142.78,-55.12 142.78,-55.12 74.78,-55.12 74.78,-55.12 68.78,-55.12 62.78,-49.12 62.78,-43.12 62.78,-43.12 62.78,-20 62.78,-20 62.78,-14 68.78,-8 74.78,-8"/>
<text text-anchor="start" x="74.75" y="-36.32" font-family="Helvetica,sans-Serif" font-size="12.00">LoadedState</text>
</g>
<g id="clust4" class="cluster state regular">
<title>cluster_ErrorState</title>
<path fill="none" stroke="black" stroke-width="2" d="M278.78,-8C278.78,-8 332.78,-8 332.78,-8 338.78,-8 344.78,-14 344.78,-20 344.78,-20 344.78,-43.12 344.78,-43.12 344.78,-49.12 338.78,-55.12 332.78,-55.12 332.78,-55.12 278.78,-55.12 278.78,-55.12 272.78,-55.12 266.78,-49.12 266.78,-43.12 266.78,-43.12 266.78,-20 266.78,-20 266.78,-14 272.78,-8 278.78,-8"/>
<text text-anchor="start" x="278.43" y="-36.32" font-family="Helvetica,sans-Serif" font-size="12.00">ErrorState</text>
</g>
<!-- InitialState -->
<!-- LoadingState -->
<!-- InitialState&#45;&gt;LoadingState -->
<g id="edge1" class="edge transition">
<title>InitialState&#45;&gt;LoadingState</title>
<path fill="none" stroke="black" d="M170.78,-158.24C170.78,-153.88 170.78,-147.94 170.78,-141.39"/>
<polygon fill="black" stroke="black" points="174.28,-141.75 170.78,-131.75 167.28,-141.75 174.28,-141.75"/>
<text text-anchor="start" x="170.78" y="-141.24" font-family="Helvetica,sans-Serif" font-size="10.00">FetchStudentsEvent &#160;&#160;</text>
</g>
<!-- LoadedState -->
<!-- LoadingState&#45;&gt;LoadedState -->
<g id="edge2" class="edge transition">
<title>LoadingState&#45;&gt;LoadedState</title>
<path fill="none" stroke="black" d="M129.78,-89.48C83.7,-87.93 14.22,-84.11 6.03,-75.12 -13.13,-54.09 18.82,-38.87 52.02,-29.35"/>
<polygon fill="black" stroke="black" points="52.57,-32.82 61.32,-26.85 50.75,-26.06 52.57,-32.82"/>
<text text-anchor="start" x="6.03" y="-66.12" font-family="Helvetica,sans-Serif" font-size="10.00">StudentsLoadedEvent &#160;&#160;</text>
</g>
<!-- ErrorState -->
<!-- LoadingState&#45;&gt;ErrorState -->
<g id="edge3" class="edge transition">
<title>LoadingState&#45;&gt;ErrorState</title>
<path fill="none" stroke="black" d="M217.49,-83.12C224.83,-81.07 232.16,-78.45 238.78,-75.12 245.93,-71.51 252.95,-66.98 259.6,-62.04"/>
<polygon fill="black" stroke="black" points="261.52,-64.99 267.21,-56.05 257.19,-59.49 261.52,-64.99"/>
<text text-anchor="start" x="257.26" y="-66.12" font-family="Helvetica,sans-Serif" font-size="10.00">ErrorEvent &#160;&#160;</text>
</g>
<!-- LoadedState&#45;&gt;LoadingState -->
<g id="edge4" class="edge transition">
<title>LoadedState&#45;&gt;LoadingState</title>
<path fill="none" stroke="black" d="M124.36,-55.12C128.5,-62.34 133.5,-69.42 139.39,-75.12 140.01,-75.72 140.66,-76.3 141.33,-76.86"/>
<polygon fill="black" stroke="black" points="139.38,-79.77 149.66,-82.29 143.2,-73.9 139.38,-79.77"/>
<text text-anchor="start" x="139.39" y="-66.12" font-family="Helvetica,sans-Serif" font-size="10.00">FetchStudentsEvent &#160;&#160;</text>
</g>
<!-- ErrorState&#45;&gt;LoadingState -->
<g id="edge5" class="edge transition">
<title>ErrorState&#45;&gt;LoadingState</title>
<path fill="none" stroke="black" d="M323.91,-55.12C324.91,-62.43 323.81,-69.54 318.78,-75.12 312.96,-81.57 272.37,-85.49 235.17,-87.75"/>
<polygon fill="black" stroke="black" points="235.07,-84.25 225.29,-88.31 235.47,-91.24 235.07,-84.25"/>
<text text-anchor="start" x="323.85" y="-66.12" font-family="Helvetica,sans-Serif" font-size="10.00">FetchStudentsEvent &#160;&#160;</text>
</g>
<!-- initial -->
<g id="node5" class="node state initial">
<title>initial</title>
<ellipse fill="black" stroke="black" stroke-width="2" cx="170.78" cy="-238.76" rx="5.4" ry="5.4"/>
</g>
<!-- initial&#45;&gt;InitialState -->
<g id="edge6" class="edge transition">
<title>initial&#45;&gt;InitialState</title>
<path fill="none" stroke="black" d="M170.78,-232.71C170.78,-228.89 170.78,-223.19 170.78,-216.74"/>
<polygon fill="black" stroke="black" points="174.28,-216.87 170.78,-206.87 167.28,-216.87 174.28,-216.87"/>
<text text-anchor="start" x="170.78" y="-216.36" font-family="Helvetica,sans-Serif" font-size="10.00">InitialState &#160;&#160;</text>
</g>
</g>
    <text
     xml:space="preserve"
     style="font-style:normal;font-weight:normal;font-size:30px;line-height:1.25;font-family:sans-serif;fill:#000000;fill-opacity:1;stroke:none;stroke-width:0.75"
     x="40"
     y="272"
     id="text288"><tspan
       sodipodi:role="line"
       id="tspan286"
       x="40"
       y="272"
       style="font-size:12px;stroke-width:0.75">Page: 0</tspan></text>
</svg>

