<?xml version="1.0" encoding="UTF-8" standalone="no"?>
<!DOCTYPE svg PUBLIC "-//W3C//DTD SVG 1.1//EN"
 "http://www.w3.org/Graphics/SVG/1.1/DTD/svg11.dtd">
<!-- Generated by graphviz version 12.2.1 (0)
 -->
<!-- Title: state transitions Pages: 1 -->
<svg width="239px" height="251px"
 viewBox="0.00 0.00 238.97 221.36" xmlns="http://www.w3.org/2000/svg" xmlns:sodipodi="http://sodipodi.sourceforge.net/DTD/sodipodi-0.dtd" xmlns:inkscape="http://www.inkscape.org/namespaces/inkscape" xmlns:xlink="http://www.w3.org/1999/xlink">
<g id="graph0" class="graph" transform="scale(1 1) rotate(0) translate(4 217.36)">
<title>state transitions</title>
<polygon fill="white" stroke="none" points="-4,4 -4,-217.36 234.97,-217.36 234.97,4 -4,4"/>
<g id="clust1" class="cluster state regular">
<title>cluster_GreenState</title>
<path fill="none" stroke="black" stroke-width="2" d="M138,-83.12C138,-83.12 199,-83.12 199,-83.12 205,-83.12 211,-89.12 211,-95.12 211,-95.12 211,-118.24 211,-118.24 211,-124.24 205,-130.24 199,-130.24 199,-130.24 138,-130.24 138,-130.24 132,-130.24 126,-124.24 126,-118.24 126,-118.24 126,-95.12 126,-95.12 126,-89.12 132,-83.12 138,-83.12"/>
<text text-anchor="start" x="137.81" y="-111.44" font-family="Helvetica,sans-Serif" font-size="12.00">GreenState</text>
</g>
<g id="clust2" class="cluster state regular">
<title>cluster_YellowState</title>
<path fill="none" stroke="black" stroke-width="2" d="M20,-8C20,-8 83,-8 83,-8 89,-8 95,-14 95,-20 95,-20 95,-43.12 95,-43.12 95,-49.12 89,-55.12 83,-55.12 83,-55.12 20,-55.12 20,-55.12 14,-55.12 8,-49.12 8,-43.12 8,-43.12 8,-20 8,-20 8,-14 14,-8 20,-8"/>
<text text-anchor="start" x="19.82" y="-36.32" font-family="Helvetica,sans-Serif" font-size="12.00">YellowState</text>
</g>
<g id="clust3" class="cluster state regular">
<title>cluster_RedState</title>
<path fill="none" stroke="black" stroke-width="2" d="M34,-158.24C34,-158.24 84,-158.24 84,-158.24 90,-158.24 96,-164.24 96,-170.24 96,-170.24 96,-193.36 96,-193.36 96,-199.36 90,-205.36 84,-205.36 84,-205.36 34,-205.36 34,-205.36 28,-205.36 22,-199.36 22,-193.36 22,-193.36 22,-170.24 22,-170.24 22,-164.24 28,-158.24 34,-158.24"/>
<text text-anchor="start" x="33.98" y="-186.56" font-family="Helvetica,sans-Serif" font-size="12.00">RedState</text>
</g>
<!-- GreenState -->
<!-- YellowState -->
<!-- GreenState&#45;&gt;YellowState -->
<g id="edge1" class="edge transition">
<title>GreenState&#45;&gt;YellowState</title>
<path fill="none" stroke="black" d="M128.34,-83.12C122.17,-77.87 113.3,-70.33 103.75,-62.21"/>
<polygon fill="black" stroke="black" points="106.04,-59.56 96.15,-55.75 101.5,-64.89 106.04,-59.56"/>
<text text-anchor="start" x="118.42" y="-66.12" font-family="Helvetica,sans-Serif" font-size="10.00">NextStateEvent &#160;&#160;</text>
</g>
<!-- RedState -->
<!-- YellowState&#45;&gt;RedState -->
<g id="edge2" class="edge transition">
<title>YellowState&#45;&gt;RedState</title>
<path fill="none" stroke="black" d="M43.62,-55.12C40.49,-77.18 38.52,-105.47 43.18,-130.24 44.83,-138.98 48.58,-148.34 51.76,-155.23"/>
<polygon fill="black" stroke="black" points="44.39,-150.84 53.01,-157 50.12,-146.81 44.39,-150.84"/>
<text text-anchor="start" x="43.18" y="-88.48" font-family="Helvetica,sans-Serif" font-size="10.00">NextStateEvent &#160;&#160;</text>
</g>
<!-- RedState&#45;&gt;GreenState -->
<g id="edge3" class="edge transition">
<title>RedState&#45;&gt;GreenState</title>
<path fill="none" stroke="black" d="M62.06,-158.24C66.79,-151.95 74.42,-143.15 83.18,-138.24 95.28,-131.46 103.67,-137.65 116.99,-130.3"/>
<polygon fill="black" stroke="black" points="118.76,-133.35 124.78,-124.63 114.63,-127.69 118.76,-133.35"/>
<text text-anchor="start" x="83.18" y="-141.24" font-family="Helvetica,sans-Serif" font-size="10.00">NextStateEvent &#160;&#160;</text>
</g>
<!-- initial -->
<g id="node4" class="node state initial">
<title>initial</title>
<ellipse fill="black" stroke="black" stroke-width="2" cx="181" cy="-166.6" rx="5.4" ry="5.4"/>
</g>
<!-- initial&#45;&gt;GreenState -->
<g id="edge4" class="edge transition">
<title>initial&#45;&gt;GreenState</title>
<path fill="none" stroke="black" d="M178.38,-161.24C175.6,-156.62 170.88,-148.78 165.6,-140.01"/>
<polygon fill="black" stroke="black" points="168.65,-138.3 160.5,-131.53 162.66,-141.91 168.65,-138.3"/>
<text text-anchor="start" x="171.5" y="-141.24" font-family="Helvetica,sans-Serif" font-size="10.00">GreenState &#160;&#160;</text>
</g>
</g>
    <text
     xml:space="preserve"
     style="font-style:normal;font-weight:normal;font-size:30px;line-height:1.25;font-family:sans-serif;fill:#000000;fill-opacity:1;stroke:none;stroke-width:0.75"
     x="40"
     y="241"
     id="text288"><tspan
       sodipodi:role="line"
       id="tspan286"
       x="40"
       y="241"
       style="font-size:12px;stroke-width:0.75">Page: 0</tspan></text>
</svg>

