<?xml version="1.0" encoding="UTF-8" standalone="no"?>
<!DOCTYPE svg PUBLIC "-//W3C//DTD SVG 1.1//EN"
 "http://www.w3.org/Graphics/SVG/1.1/DTD/svg11.dtd">
<!-- Generated by graphviz version 12.2.1 (0)
 -->
<!-- Title: state transitions Pages: 1 -->
<svg width="167px" height="282px"
 viewBox="0.00 0.00 167.41 252.16" xmlns="http://www.w3.org/2000/svg" xmlns:sodipodi="http://sodipodi.sourceforge.net/DTD/sodipodi-0.dtd" xmlns:inkscape="http://www.inkscape.org/namespaces/inkscape" xmlns:xlink="http://www.w3.org/1999/xlink">
<g id="graph0" class="graph" transform="scale(1 1) rotate(0) translate(4 248.16)">
<title>state transitions</title>
<polygon fill="white" stroke="none" points="-4,4 -4,-248.16 163.41,-248.16 163.41,4 -4,4"/>
<g id="clust1" class="cluster state regular">
<title>cluster_Solid</title>
<path fill="none" stroke="black" stroke-width="2" d="M41.5,-158.24C41.5,-158.24 67.5,-158.24 67.5,-158.24 73.5,-158.24 79.5,-164.24 79.5,-170.24 79.5,-170.24 79.5,-193.36 79.5,-193.36 79.5,-199.36 73.5,-205.36 67.5,-205.36 67.5,-205.36 41.5,-205.36 41.5,-205.36 35.5,-205.36 29.5,-199.36 29.5,-193.36 29.5,-193.36 29.5,-170.24 29.5,-170.24 29.5,-164.24 35.5,-158.24 41.5,-158.24"/>
<text text-anchor="start" x="41.15" y="-186.56" font-family="Helvetica,sans-Serif" font-size="12.00">Solid</text>
</g>
<g id="clust2" class="cluster state regular">
<title>cluster_Liquid</title>
<path fill="none" stroke="black" stroke-width="2" d="M41.5,-83.12C41.5,-83.12 73.5,-83.12 73.5,-83.12 79.5,-83.12 85.5,-89.12 85.5,-95.12 85.5,-95.12 85.5,-118.24 85.5,-118.24 85.5,-124.24 79.5,-130.24 73.5,-130.24 73.5,-130.24 41.5,-130.24 41.5,-130.24 35.5,-130.24 29.5,-124.24 29.5,-118.24 29.5,-118.24 29.5,-95.12 29.5,-95.12 29.5,-89.12 35.5,-83.12 41.5,-83.12"/>
<text text-anchor="start" x="41.48" y="-111.44" font-family="Helvetica,sans-Serif" font-size="12.00">Liquid</text>
</g>
<g id="clust3" class="cluster state regular">
<title>cluster_Gas</title>
<path fill="none" stroke="black" stroke-width="2" d="M46.5,-8C46.5,-8 68.5,-8 68.5,-8 74.5,-8 80.5,-14 80.5,-20 80.5,-20 80.5,-43.12 80.5,-43.12 80.5,-49.12 74.5,-55.12 68.5,-55.12 68.5,-55.12 46.5,-55.12 46.5,-55.12 40.5,-55.12 34.5,-49.12 34.5,-43.12 34.5,-43.12 34.5,-20 34.5,-20 34.5,-14 40.5,-8 46.5,-8"/>
<text text-anchor="start" x="46.49" y="-36.32" font-family="Helvetica,sans-Serif" font-size="12.00">Gas</text>
</g>
<!-- Solid -->
<!-- Liquid -->
<!-- Solid&#45;&gt;Liquid -->
<g id="edge1" class="edge transition">
<title>Solid&#45;&gt;Liquid</title>
<path fill="none" stroke="black" d="M29.5,-164.58C21.19,-163.05 8.6,-159.3 2.7,-150.24 -0.21,-145.77 0.68,-143.18 2.7,-138.24 6.61,-128.65 13.61,-119.98 20.92,-112.83"/>
<polygon fill="black" stroke="black" points="23.24,-115.46 28.37,-106.18 18.58,-110.23 23.24,-115.46"/>
<text text-anchor="start" x="2.7" y="-141.24" font-family="Helvetica,sans-Serif" font-size="10.00">MeltEvent &#160;&#160;</text>
</g>
<!-- Liquid&#45;&gt;Solid -->
<g id="edge2" class="edge transition">
<title>Liquid&#45;&gt;Solid</title>
<path fill="none" stroke="black" d="M57.32,-130.24C57.25,-135.86 56.45,-141.79 54.52,-147.77"/>
<polygon fill="black" stroke="black" points="51.34,-146.3 50.51,-156.86 57.74,-149.12 51.34,-146.3"/>
<text text-anchor="start" x="59.67" y="-141.24" font-family="Helvetica,sans-Serif" font-size="10.00">FreezeEvent &#160;&#160;</text>
</g>
<!-- Gas -->
<!-- Liquid&#45;&gt;Gas -->
<g id="edge3" class="edge transition">
<title>Liquid&#45;&gt;Gas</title>
<path fill="none" stroke="black" d="M29.5,-89.29C19.7,-87.62 8.33,-83.78 2.12,-75.12 -0.99,-70.79 -0.15,-67.95 2.12,-63.12 7.17,-52.41 16.08,-43.35 25.31,-36.19"/>
<polygon fill="black" stroke="black" points="27.13,-39.19 33.27,-30.55 23.08,-33.48 27.13,-39.19"/>
<text text-anchor="start" x="2.12" y="-66.12" font-family="Helvetica,sans-Serif" font-size="10.00">VaporizeEvent &#160;&#160;</text>
</g>
<!-- Gas&#45;&gt;Liquid -->
<g id="edge4" class="edge transition">
<title>Gas&#45;&gt;Liquid</title>
<path fill="none" stroke="black" d="M75.84,-55.12C76.41,-60.89 75.89,-66.97 73.64,-73.08"/>
<polygon fill="black" stroke="black" points="70.61,-71.32 68.99,-81.79 76.79,-74.61 70.61,-71.32"/>
<text text-anchor="start" x="79.91" y="-66.12" font-family="Helvetica,sans-Serif" font-size="10.00">CondenseEvent &#160;&#160;</text>
</g>
<!-- initial -->
<g id="node4" class="node state initial">
<title>initial</title>
<ellipse fill="black" stroke="black" stroke-width="2" cx="37.5" cy="-238.76" rx="5.4" ry="5.4"/>
</g>
<!-- initial&#45;&gt;Solid -->
<g id="edge5" class="edge transition">
<title>initial&#45;&gt;Solid</title>
<path fill="none" stroke="black" d="M37.5,-232.71C37.5,-228.89 37.5,-223.19 37.5,-216.74"/>
<polygon fill="black" stroke="black" points="41,-216.87 37.5,-206.87 34,-216.87 41,-216.87"/>
<text text-anchor="start" x="37.5" y="-216.36" font-family="Helvetica,sans-Serif" font-size="10.00">Solid &#160;&#160;</text>
</g>
</g>
    <text
     xml:space="preserve"
     style="font-style:normal;font-weight:normal;font-size:30px;line-height:1.25;font-family:sans-serif;fill:#000000;fill-opacity:1;stroke:none;stroke-width:0.75"
     x="40"
     y="272"
     id="text288"><tspan
       sodipodi:role="line"
       id="tspan286"
       x="40"
       y="272"
       style="font-size:12px;stroke-width:0.75">Page: 0</tspan></text>
</svg>

